<svg width="46" height="37" viewBox="0 0 46 37" fill="none" xmlns="http://www.w3.org/2000/svg">
<g clip-path="url(#clip0_8360_23656)">
<path d="M33.8592 11.625C33.2602 11.625 32.6938 11.7421 32.16 11.9765C31.6261 12.1979 31.1606 12.5071 30.7635 12.9043C30.3663 13.3014 30.0571 13.7669 29.8357 14.3007C29.6014 14.8346 29.4842 15.401 29.4842 16C29.4842 16.5989 29.6014 17.1653 29.8357 17.6992C30.0571 18.233 30.3663 18.6985 30.7635 19.0957C31.1606 19.4928 31.6261 19.802 32.16 20.0234C32.6938 20.2578 33.2602 20.375 33.8592 20.375C34.4581 20.375 35.0245 20.2578 35.5584 20.0234C36.0922 19.802 36.5577 19.4928 36.9549 19.0957C37.352 18.6985 37.6613 18.233 37.8826 17.6992C38.117 17.1653 38.2342 16.5989 38.2342 16C38.2342 15.401 38.117 14.8346 37.8826 14.3007C37.6613 13.7669 37.352 13.3014 36.9549 12.9043C36.5577 12.5071 36.0922 12.1979 35.5584 11.9765C35.0245 11.7421 34.4581 11.625 33.8592 11.625ZM28.2342 16C28.2342 15.2187 28.3839 14.4895 28.6834 13.8125C28.9698 13.1224 29.367 12.5234 29.8748 12.0156C30.3826 11.5078 30.9816 11.1106 31.6717 10.8242C32.3488 10.5247 33.0779 10.375 33.8592 10.375C34.6404 10.375 35.3696 10.5247 36.0467 10.8242C36.7368 11.1106 37.3357 11.5078 37.8435 12.0156C38.3514 12.5234 38.7485 13.1224 39.035 13.8125C39.3344 14.4895 39.4842 15.2187 39.4842 16C39.4842 16.7812 39.3344 17.5104 39.035 18.1875C38.7485 18.8776 38.3514 19.4765 37.8435 19.9843C37.3357 20.4921 36.7368 20.8893 36.0467 21.1757C35.3696 21.4752 34.6404 21.625 33.8592 21.625C33.0779 21.625 32.3488 21.4752 31.6717 21.1757C30.9816 20.8893 30.3826 20.4921 29.8748 19.9843C29.367 19.4765 28.9698 18.8776 28.6834 18.1875C28.3839 17.5104 28.2342 16.7812 28.2342 16ZM33.8592 21.625C33.143 21.625 32.4399 21.7161 31.7498 21.8984C31.0597 22.0807 30.4086 22.3541 29.7967 22.7187C29.1847 23.0703 28.6248 23.5 28.117 24.0078C27.6092 24.5156 27.1795 25.0755 26.8279 25.6875C26.7368 25.8307 26.6066 25.9251 26.4373 25.9707C26.268 26.0162 26.1118 26 25.9685 25.9218C25.8253 25.8307 25.7309 25.7005 25.6853 25.5312C25.6398 25.3619 25.656 25.2057 25.7342 25.0625C26.1508 24.3463 26.6489 23.6985 27.2283 23.1191C27.8077 22.5397 28.4555 22.0416 29.1717 21.625C29.8878 21.2213 30.643 20.9121 31.4373 20.6972C32.2316 20.4824 33.0389 20.375 33.8592 20.375C34.6795 20.375 35.4868 20.4824 36.281 20.6972C37.0753 20.9121 37.8305 21.2213 38.5467 21.625C39.2628 22.0416 39.9106 22.5397 40.49 23.1191C41.0695 23.6985 41.5675 24.3463 41.9842 25.0625C42.0623 25.2057 42.0786 25.3619 42.033 25.5312C41.9874 25.7005 41.893 25.8307 41.7498 25.9218C41.6066 26 41.4503 26.0162 41.281 25.9707C41.1118 25.9251 40.9816 25.8307 40.8904 25.6875C40.5389 25.0755 40.1092 24.5156 39.6014 24.0078C39.0935 23.5 38.5336 23.0703 37.9217 22.7187C37.3097 22.3541 36.6586 22.0807 35.9685 21.8984C35.2784 21.7161 34.5753 21.625 33.8592 21.625Z" fill="black"/>
</g>
<defs>
<clipPath id="clip0_8360_23656">
<rect width="20" height="36" fill="white" transform="matrix(1 0 0 -1 25.6602 36.5)"/>
</clipPath>
</defs>
</svg>
