<svg width="310" height="67" viewBox="0 0 310 67" fill="none" xmlns="http://www.w3.org/2000/svg">
<g clip-path="url(#clip0_8360_23386)">
<path d="M141.875 17.675C141.875 18.175 141.688 18.6125 141.312 18.9875C140.938 19.3625 140.5 19.55 140 19.55C139.5 19.55 139.062 19.3625 138.688 18.9875C138.312 18.6125 138.125 18.175 138.125 17.675C138.125 17.175 138.312 16.7375 138.688 16.3625C139.062 15.9875 139.5 15.8 140 15.8C140.5 15.8 140.938 15.9875 141.312 16.3625C141.688 16.7375 141.875 17.175 141.875 17.675ZM141.875 25.175C141.875 25.675 141.688 26.1125 141.312 26.4875C140.938 26.8625 140.5 27.05 140 27.05C139.5 27.05 139.062 26.8625 138.688 26.4875C138.312 26.1125 138.125 25.675 138.125 25.175C138.125 24.675 138.312 24.2375 138.688 23.8625C139.062 23.4875 139.5 23.3 140 23.3C140.5 23.3 140.938 23.4875 141.312 23.8625C141.688 24.2375 141.875 24.675 141.875 25.175ZM141.875 10.175C141.875 10.675 141.688 11.1125 141.312 11.4875C140.938 11.8625 140.5 12.05 140 12.05C139.5 12.05 139.062 11.8625 138.688 11.4875C138.312 11.1125 138.125 10.675 138.125 10.175C138.125 9.67505 138.312 9.23755 138.688 8.86255C139.062 8.48755 139.5 8.30005 140 8.30005C140.5 8.30005 140.938 8.48755 141.312 8.86255C141.688 9.23755 141.875 9.67505 141.875 10.175ZM185.125 0.800049H166.25C164.708 0.800049 163.385 1.35213 162.281 2.4563C161.177 3.56047 160.625 4.88338 160.625 6.42505V12.05H156.875V2.67505C156.875 2.17505 156.688 1.73755 156.312 1.36255C155.938 0.987549 155.5 0.800049 155 0.800049H132.5C132 0.800049 131.562 0.987549 131.188 1.36255C130.812 1.73755 130.625 2.17505 130.625 2.67505V12.05H124.875C124.375 12.05 123.938 12.2375 123.562 12.6125C123.188 12.9875 123 13.425 123 13.925V21.425C123 21.925 123.188 22.3625 123.562 22.7375C123.938 23.1125 124.375 23.3 124.875 23.3H130.625V36.425C130.625 37.9667 131.177 39.2896 132.281 40.3938C133.385 41.498 134.708 42.05 136.25 42.05H138.125V43.925C138.125 45.1334 138.479 46.2271 139.188 47.2063C139.896 48.1855 140.792 48.8625 141.875 49.2375V53.55H136.25C134.708 53.55 133.385 54.1021 132.281 55.2063C131.177 56.3105 130.625 57.6334 130.625 59.175V61.05H124.875C124.375 61.05 123.938 61.2375 123.562 61.6125C123.188 61.9875 123 62.425 123 62.925C123 63.425 123.188 63.8625 123.562 64.2375C123.938 64.6125 124.375 64.8 124.875 64.8H185.125C185.625 64.8 186.062 64.6125 186.438 64.2375C186.812 63.8625 187 63.425 187 62.925C187 62.425 186.812 61.9875 186.438 61.6125C186.062 61.2375 185.625 61.05 185.125 61.05H156.875V59.175C156.875 57.6334 156.323 56.3105 155.219 55.2063C154.115 54.1021 152.792 53.55 151.25 53.55H145.625V49.2375C146.708 48.8625 147.604 48.1855 148.312 47.2063C149.021 46.2271 149.375 45.1334 149.375 43.925V42.05H151.25C152.792 42.05 154.115 41.498 155.219 40.3938C156.323 39.2896 156.875 37.9667 156.875 36.425V23.3H166.25C167.792 23.3 169.115 22.748 170.219 21.6438C171.323 20.5396 171.875 19.2167 171.875 17.675V12.05H185.125C185.625 12.05 186.062 11.8625 186.438 11.4875C186.812 11.1125 187 10.675 187 10.175V2.67505C187 2.17505 186.812 1.73755 186.438 1.36255C186.062 0.987549 185.625 0.800049 185.125 0.800049ZM153.125 59.175V61.05H134.375V59.175C134.375 58.675 134.562 58.2375 134.938 57.8625C135.312 57.4875 135.75 57.3 136.25 57.3H151.25C151.75 57.3 152.188 57.4875 152.562 57.8625C152.938 58.2375 153.125 58.675 153.125 59.175ZM134.375 4.55005H153.125V8.30005H147.5C147 8.30005 146.562 8.48755 146.188 8.86255C145.812 9.23755 145.625 9.67505 145.625 10.175C145.625 10.675 145.812 11.1125 146.188 11.4875C146.562 11.8625 147 12.05 147.5 12.05H153.125V15.8H147.5C147 15.8 146.562 15.9875 146.188 16.3625C145.812 16.7375 145.625 17.175 145.625 17.675C145.625 18.175 145.812 18.6125 146.188 18.9875C146.562 19.3625 147 19.55 147.5 19.55H153.125V23.3H147.5C147 23.3 146.562 23.4875 146.188 23.8625C145.812 24.2375 145.625 24.675 145.625 25.175C145.625 25.675 145.812 26.1125 146.188 26.4875C146.562 26.8625 147 27.05 147.5 27.05H153.125V30.8H134.375V4.55005ZM126.75 19.55V15.8H130.625V19.55H126.75ZM145.625 43.925C145.625 44.425 145.438 44.8625 145.062 45.2375C144.688 45.6125 144.25 45.8 143.75 45.8C143.25 45.8 142.812 45.6125 142.438 45.2375C142.062 44.8625 141.875 44.425 141.875 43.925V42.05H145.625V43.925ZM151.25 38.3H136.25C135.75 38.3 135.312 38.1125 134.938 37.7375C134.562 37.3625 134.375 36.925 134.375 36.425V34.55H153.125V36.425C153.125 36.925 152.938 37.3625 152.562 37.7375C152.188 38.1125 151.75 38.3 151.25 38.3ZM170 8.30005C169.5 8.30005 169.062 8.48755 168.688 8.86255C168.312 9.23755 168.125 9.67505 168.125 10.175V17.675C168.125 18.175 167.938 18.6125 167.562 18.9875C167.188 19.3625 166.75 19.55 166.25 19.55H156.875V15.8H162.5C163 15.8 163.438 15.6125 163.812 15.2375C164.188 14.8625 164.375 14.425 164.375 13.925V6.42505C164.375 5.92505 164.562 5.48755 164.938 5.11255C165.312 4.73755 165.75 4.55005 166.25 4.55005H183.25V8.30005H170Z" fill="#2EBB77"/>
</g>
<defs>
<clipPath id="clip0_8360_23386">
<rect width="64" height="64" fill="white" transform="matrix(1 0 0 -1 123 64.8)"/>
</clipPath>
</defs>
</svg>
