<svg width="310" height="67" viewBox="0 0 310 67" fill="none" xmlns="http://www.w3.org/2000/svg">
<path d="M181.375 2.80005H128.625C127.083 2.80005 125.76 3.35213 124.656 4.4563C123.552 5.56047 123 6.88338 123 8.42505V45.925C123 47.4667 123.552 48.7896 124.656 49.8938C125.76 50.998 127.083 51.55 128.625 51.55H144.875L142.375 59.05H136.25C135.75 59.05 135.312 59.2375 134.938 59.6125C134.562 59.9875 134.375 60.425 134.375 60.925C134.375 61.425 134.562 61.8625 134.938 62.2375C135.312 62.6125 135.75 62.8 136.25 62.8H173.75C174.25 62.8 174.688 62.6125 175.062 62.2375C175.438 61.8625 175.625 61.425 175.625 60.925C175.625 60.425 175.438 59.9875 175.062 59.6125C174.688 59.2375 174.25 59.05 173.75 59.05H167.625L165.125 51.55H181.375C182.917 51.55 184.24 50.998 185.344 49.8938C186.448 48.7896 187 47.4667 187 45.925V8.42505C187 6.88338 186.448 5.56047 185.344 4.4563C184.24 3.35213 182.917 2.80005 181.375 2.80005ZM146.375 59.05L148.875 51.55H161.125L163.625 59.05H146.375ZM183.25 45.925C183.25 46.425 183.062 46.8625 182.688 47.2375C182.312 47.6125 181.875 47.8 181.375 47.8C180.667 47.8 177.646 47.8 172.312 47.8C167.021 47.8 161.25 47.8 155 47.8C148.75 47.8 142.979 47.8 137.688 47.8C132.354 47.8 129.333 47.8 128.625 47.8C128.125 47.8 127.688 47.6125 127.312 47.2375C126.938 46.8625 126.75 46.425 126.75 45.925V44.05H183.25V45.925ZM183.25 40.3H126.75V8.42505C126.75 7.92505 126.938 7.48755 127.312 7.11255C127.688 6.73755 128.125 6.55005 128.625 6.55005H181.375C181.875 6.55005 182.312 6.73755 182.688 7.11255C183.062 7.48755 183.25 7.92505 183.25 8.42505V40.3ZM160.625 12.175C160.625 12.675 160.438 13.1125 160.062 13.4875C159.688 13.8625 159.25 14.05 158.75 14.05C158.25 14.05 157.812 13.8625 157.438 13.4875C157.062 13.1125 156.875 12.675 156.875 12.175C156.875 11.675 157.062 11.2375 157.438 10.8625C157.812 10.4875 158.25 10.3 158.75 10.3C159.25 10.3 159.688 10.4875 160.062 10.8625C160.438 11.2375 160.625 11.675 160.625 12.175ZM153.125 12.175C153.125 12.675 152.938 13.1125 152.562 13.4875C152.188 13.8625 151.75 14.05 151.25 14.05C150.75 14.05 150.312 13.8625 149.938 13.4875C149.562 13.1125 149.375 12.675 149.375 12.175C149.375 11.675 149.562 11.2375 149.938 10.8625C150.312 10.4875 150.75 10.3 151.25 10.3C151.75 10.3 152.188 10.4875 152.562 10.8625C152.938 11.2375 153.125 11.675 153.125 12.175ZM168.125 12.175C168.125 12.675 167.938 13.1125 167.562 13.4875C167.188 13.8625 166.75 14.05 166.25 14.05C165.75 14.05 165.312 13.8625 164.938 13.4875C164.562 13.1125 164.375 12.675 164.375 12.175C164.375 11.675 164.562 11.2375 164.938 10.8625C165.312 10.4875 165.75 10.3 166.25 10.3C166.75 10.3 167.188 10.4875 167.562 10.8625C167.938 11.2375 168.125 11.675 168.125 12.175ZM143.75 10.3H132.5C132 10.3 131.562 10.4875 131.188 10.8625C130.812 11.2375 130.625 11.675 130.625 12.175V34.675C130.625 35.175 130.812 35.6125 131.188 35.9875C131.562 36.3625 132 36.55 132.5 36.55H143.75C144.25 36.55 144.688 36.3625 145.062 35.9875C145.438 35.6125 145.625 35.175 145.625 34.675V12.175C145.625 11.675 145.438 11.2375 145.062 10.8625C144.688 10.4875 144.25 10.3 143.75 10.3ZM141.875 32.8H134.375V29.05H141.875V32.8ZM141.875 25.3H134.375V21.55H141.875V25.3ZM141.875 17.8H134.375V14.05H141.875V17.8ZM171.312 29.6125C170.938 29.2375 170.5 29.05 170 29.05C169.5 29.05 169.062 29.2375 168.688 29.6125L166.562 31.7375L160.312 22.3625C160.146 22.1125 159.927 21.9146 159.656 21.7688C159.385 21.623 159.083 21.55 158.75 21.55C158.417 21.55 158.115 21.623 157.844 21.7688C157.573 21.9146 157.354 22.1125 157.188 22.3625L149.688 33.6125C149.396 34.0709 149.302 34.55 149.406 35.05C149.51 35.55 149.771 35.9459 150.188 36.2375C150.646 36.5292 151.125 36.623 151.625 36.5188C152.125 36.4146 152.521 36.1542 152.812 35.7375L158.75 26.8L164.688 35.7375C164.854 35.9459 165.052 36.123 165.281 36.2688C165.51 36.4146 165.771 36.5084 166.062 36.55C166.354 36.5917 166.625 36.5605 166.875 36.4563C167.125 36.3521 167.354 36.1959 167.562 35.9875L170 33.55L172.438 35.9875C172.812 36.3625 173.25 36.55 173.75 36.55C174.25 36.55 174.688 36.3625 175.062 35.9875C175.438 35.6125 175.625 35.175 175.625 34.675C175.625 34.175 175.438 33.7375 175.062 33.3625L171.312 29.6125ZM173.75 14.05C172.208 14.05 170.885 14.6021 169.781 15.7063C168.677 16.8105 168.125 18.1334 168.125 19.675C168.125 21.2167 168.677 22.5396 169.781 23.6438C170.885 24.748 172.208 25.3 173.75 25.3C175.292 25.3 176.615 24.748 177.719 23.6438C178.823 22.5396 179.375 21.2167 179.375 19.675C179.375 18.1334 178.823 16.8105 177.719 15.7063C176.615 14.6021 175.292 14.05 173.75 14.05ZM173.75 21.55C173.25 21.55 172.812 21.3625 172.438 20.9875C172.062 20.6125 171.875 20.175 171.875 19.675C171.875 19.175 172.062 18.7375 172.438 18.3625C172.812 17.9875 173.25 17.8 173.75 17.8C174.25 17.8 174.688 17.9875 175.062 18.3625C175.438 18.7375 175.625 19.175 175.625 19.675C175.625 20.175 175.438 20.6125 175.062 20.9875C174.688 21.3625 174.25 21.55 173.75 21.55Z" fill="#2EBB77"/>
</svg>
