<svg width="56" height="39" viewBox="0 0 56 39" fill="none" xmlns="http://www.w3.org/2000/svg">
<g clip-path="url(#clip0_8360_23664)">
<path d="M28.0332 15.5H40.6504C40.8066 15.5 40.9564 15.526 41.0996 15.5781C41.2428 15.6302 41.373 15.7083 41.4902 15.8125C41.6074 15.9167 41.7018 16.0371 41.7734 16.1738C41.8451 16.3105 41.8874 16.4505 41.9004 16.5938C41.9004 16.6068 41.9004 16.6133 41.9004 16.6133L43.0137 26.6133C43.0267 26.7044 43.0267 26.7923 43.0137 26.877C43.0007 26.9616 42.9811 27.043 42.9551 27.1211C42.929 27.2122 42.8965 27.2936 42.8574 27.3652C42.8184 27.4368 42.7663 27.5052 42.7012 27.5703C42.6491 27.6484 42.5872 27.7135 42.5156 27.7656C42.444 27.8177 42.3691 27.8568 42.291 27.8828C42.1999 27.9219 42.112 27.9512 42.0273 27.9707C41.9427 27.9902 41.8613 28 41.7832 28H26.9004C26.8223 28 26.7409 27.9902 26.6562 27.9707C26.5716 27.9512 26.4837 27.9219 26.3926 27.8828C26.3145 27.8568 26.2396 27.8177 26.168 27.7656C26.0964 27.7135 26.0345 27.6484 25.9824 27.5703C25.9173 27.5052 25.8652 27.4368 25.8262 27.3652C25.7871 27.2936 25.7546 27.2122 25.7285 27.1211C25.7025 27.043 25.6829 26.9616 25.6699 26.877C25.6569 26.7923 25.6569 26.7044 25.6699 26.6133L26.7832 16.6133C26.7832 16.6133 26.7832 16.6068 26.7832 16.5938C26.7962 16.4505 26.8385 16.3105 26.9102 16.1738C26.9818 16.0371 27.0762 15.9167 27.1934 15.8125C27.3105 15.7083 27.4408 15.6302 27.584 15.5781C27.7272 15.526 27.877 15.5 28.0332 15.5ZM40.6504 16.75H28.0332L26.9199 26.75H41.7637L40.6504 16.75ZM34.3418 13.625C34.0163 13.625 33.6973 13.6868 33.3848 13.8105C33.0723 13.9342 32.7988 14.1133 32.5645 14.3477C32.3301 14.582 32.151 14.8555 32.0273 15.168C31.9036 15.4805 31.8418 15.7995 31.8418 16.125V18.625C31.8418 18.7943 31.7799 18.9408 31.6562 19.0645C31.5326 19.1882 31.3861 19.25 31.2168 19.25C31.0475 19.25 30.901 19.1882 30.7773 19.0645C30.6536 18.9408 30.5918 18.7943 30.5918 18.625V16.125C30.5918 15.6302 30.6862 15.1517 30.875 14.6895C31.0638 14.2272 31.334 13.8203 31.6855 13.4688C32.0371 13.1172 32.444 12.847 32.9062 12.6582C33.3685 12.4694 33.847 12.375 34.3418 12.375C34.8366 12.375 35.3151 12.4694 35.7773 12.6582C36.2396 12.847 36.6465 13.1172 36.998 13.4688C37.3496 13.8203 37.6198 14.2272 37.8086 14.6895C37.9974 15.1517 38.0918 15.6302 38.0918 16.125V18.625C38.0918 18.7943 38.0299 18.9408 37.9062 19.0645C37.7826 19.1882 37.6361 19.25 37.4668 19.25C37.2975 19.25 37.151 19.1882 37.0273 19.0645C36.9036 18.9408 36.8418 18.7943 36.8418 18.625V16.125C36.8418 15.7995 36.7799 15.4805 36.6562 15.168C36.5326 14.8555 36.3535 14.582 36.1191 14.3477C35.8848 14.1133 35.6113 13.9342 35.2988 13.8105C34.9863 13.6868 34.6673 13.625 34.3418 13.625Z" fill="black"/>
</g>
<rect x="37.6602" y="0.5" width="18" height="18" rx="9" fill="#2EBB77"/>
<path d="M46.8612 13.644C46.1492 13.644 45.5252 13.452 44.9892 13.068C44.4612 12.676 44.0492 12.136 43.7532 11.448C43.4572 10.752 43.3092 9.944 43.3092 9.024C43.3092 8.104 43.4572 7.3 43.7532 6.612C44.0492 5.916 44.4612 5.376 44.9892 4.992C45.5172 4.608 46.1372 4.416 46.8492 4.416C47.5612 4.416 48.1812 4.608 48.7092 4.992C49.2372 5.376 49.6492 5.916 49.9452 6.612C50.2492 7.3 50.4012 8.104 50.4012 9.024C50.4012 9.944 50.2532 10.752 49.9572 11.448C49.6612 12.144 49.2452 12.684 48.7092 13.068C48.1812 13.452 47.5652 13.644 46.8612 13.644ZM46.8612 12.552C47.3412 12.552 47.7572 12.408 48.1092 12.12C48.4612 11.824 48.7332 11.412 48.9252 10.884C49.1252 10.356 49.2252 9.736 49.2252 9.024C49.2252 8.312 49.1252 7.692 48.9252 7.164C48.7332 6.636 48.4572 6.228 48.0972 5.94C47.7452 5.652 47.3292 5.508 46.8492 5.508C46.3692 5.508 45.9532 5.652 45.6012 5.94C45.2492 6.228 44.9732 6.636 44.7732 7.164C44.5812 7.692 44.4852 8.312 44.4852 9.024C44.4852 9.728 44.5812 10.344 44.7732 10.872C44.9732 11.4 45.2492 11.812 45.6012 12.108C45.9612 12.404 46.3812 12.552 46.8612 12.552Z" fill="white"/>
<defs>
<clipPath id="clip0_8360_23664">
<rect width="20" height="20" fill="white" transform="matrix(1 0 0 -1 25.6602 30.5)"/>
</clipPath>
</defs>
</svg>
