<svg width="310" height="67" viewBox="0 0 310 67" fill="none" xmlns="http://www.w3.org/2000/svg">
<g clip-path="url(#clip0_8360_23379)">
<path d="M181.375 11.05C180.583 9.09172 179.396 7.42505 177.812 6.05005C176.229 4.67505 174.417 3.73755 172.375 3.23755L162.938 0.862549C162.688 0.779213 162.417 0.768799 162.125 0.831299C161.833 0.893799 161.583 1.00838 161.375 1.17505C161.125 1.38338 160.938 1.61255 160.812 1.86255C160.688 2.11255 160.625 2.38338 160.625 2.67505C160.625 4.21672 160.073 5.53963 158.969 6.6438C157.865 7.74797 156.542 8.30005 155 8.30005C153.458 8.30005 152.135 7.74797 151.031 6.6438C149.927 5.53963 149.375 4.21672 149.375 2.67505C149.375 2.38338 149.312 2.11255 149.188 1.86255C149.062 1.61255 148.875 1.38338 148.625 1.17505C148.417 1.00838 148.167 0.893799 147.875 0.831299C147.583 0.768799 147.312 0.779213 147.062 0.862549L137.625 3.23755C135.542 3.73755 133.698 4.68547 132.094 6.0813C130.49 7.47713 129.292 9.13338 128.5 11.05L123.125 24.6125C123.042 24.8625 123 25.1125 123 25.3625C123 25.6125 123.062 25.8625 123.188 26.1125C123.271 26.3209 123.417 26.5188 123.625 26.7063C123.833 26.8938 124.062 27.0084 124.312 27.05L134.375 30.425V62.925C134.375 63.425 134.562 63.8625 134.938 64.2375C135.312 64.6125 135.75 64.8 136.25 64.8H173.75C174.25 64.8 174.688 64.6125 175.062 64.2375C175.438 63.8625 175.625 63.425 175.625 62.925V30.425L185.688 27.05C185.938 27.0084 186.167 26.8938 186.375 26.7063C186.583 26.5188 186.729 26.3209 186.812 26.1125C186.938 25.8625 187 25.6021 187 25.3313C187 25.0605 186.958 24.8209 186.875 24.6125L181.375 11.05ZM175.625 26.4875V17.8C175.625 17.3 175.438 16.8625 175.062 16.4875C174.688 16.1125 174.25 15.925 173.75 15.925C173.25 15.925 172.812 16.1125 172.438 16.4875C172.062 16.8625 171.875 17.3 171.875 17.8V61.05H138.125C138.125 60.7584 138.125 58.3834 138.125 53.925C138.125 49.5084 138.125 44.6646 138.125 39.3938C138.125 34.123 138.125 29.2792 138.125 24.8625C138.125 20.4042 138.125 18.05 138.125 17.8C138.125 17.3 137.938 16.8625 137.562 16.4875C137.188 16.1125 136.75 15.925 136.25 15.925C135.75 15.925 135.312 16.1125 134.938 16.4875C134.562 16.8625 134.375 17.3 134.375 17.8V26.4875L127.375 24.1125L132 12.4875C132.542 11.1125 133.396 9.92505 134.562 8.92505C135.729 7.92505 137.062 7.23755 138.562 6.86255L145.938 4.98755C146.438 7.02922 147.531 8.71672 149.219 10.05C150.906 11.3834 152.833 12.05 155 12.05C157.167 12.05 159.094 11.3834 160.781 10.05C162.469 8.71672 163.562 7.02922 164.062 4.98755L171.438 6.86255C172.896 7.23755 174.198 7.91463 175.344 8.8938C176.49 9.87297 177.333 11.0709 177.875 12.4875L182.625 24.175L175.625 26.4875ZM167.438 23.8625C167.146 23.6125 166.812 23.4667 166.438 23.425C166.062 23.3834 165.729 23.4459 165.438 23.6125L159.562 26.55L156.688 20.7375C156.521 20.4042 156.292 20.1438 156 19.9563C155.708 19.7688 155.375 19.675 155 19.675C154.625 19.675 154.292 19.7688 154 19.9563C153.708 20.1438 153.479 20.4042 153.312 20.7375L150.438 26.55L144.562 23.6125C144.271 23.4459 143.938 23.3834 143.562 23.425C143.188 23.4667 142.854 23.6125 142.562 23.8625C142.271 24.0709 142.073 24.3521 141.969 24.7063C141.865 25.0605 141.854 25.4042 141.938 25.7375L145.688 40.7375C145.771 41.1542 145.99 41.498 146.344 41.7688C146.698 42.0396 147.083 42.175 147.5 42.175H162.5C162.917 42.175 163.302 42.0396 163.656 41.7688C164.01 41.498 164.229 41.1542 164.312 40.7375L168.062 25.7375C168.146 25.4042 168.135 25.0605 168.031 24.7063C167.927 24.3521 167.729 24.0709 167.438 23.8625ZM161.062 38.425H148.938L146.562 28.8L150.438 30.7375C150.896 30.9459 151.365 30.9771 151.844 30.8313C152.323 30.6855 152.688 30.3625 152.938 29.8625L155 25.7375L157.062 29.8625C157.312 30.3625 157.677 30.6855 158.156 30.8313C158.635 30.9771 159.104 30.9459 159.562 30.7375L163.438 28.8L161.062 38.425Z" fill="#2EBB77"/>
</g>
<defs>
<clipPath id="clip0_8360_23379">
<rect width="64" height="64" fill="white" transform="matrix(1 0 0 -1 123 64.8)"/>
</clipPath>
</defs>
</svg>
