<svg width="56" height="57" viewBox="0 0 56 57" fill="none" xmlns="http://www.w3.org/2000/svg">
<path d="M54.3594 0.0899048C53.9219 0.0899048 53.5391 0.253967 53.2109 0.582092C52.8828 0.910217 52.7188 1.29303 52.7188 1.73053V7.14459H34.8906V7.03522C34.8542 5.94147 34.3073 5.39459 33.25 5.39459C32.1927 5.39459 31.6458 5.92324 31.6094 6.98053V7.14459H24.3906V7.03522C24.3177 5.94147 23.7617 5.39459 22.7227 5.39459C21.6836 5.39459 21.1458 5.92324 21.1094 6.98053V7.14459H3.28125V1.73053C3.24479 0.63678 2.69792 0.0899048 1.64062 0.0899048C0.583333 0.0899048 0.0364583 0.63678 0 1.73053V54.4493C0.0364583 55.543 0.583333 56.0899 1.64062 56.0899C2.69792 56.0899 3.24479 55.543 3.28125 54.4493V10.4258H21.1094V14.1446H13.9453C13.7266 14.1446 13.5169 14.1902 13.3164 14.2813C13.1159 14.3725 12.9427 14.4909 12.7969 14.6368L7.49219 19.8868C7.20052 20.2149 7.05469 20.6068 7.05469 21.0626C7.05469 21.5183 7.20052 21.9102 7.49219 22.2383L12.3047 26.9962V42.1446C12.3047 42.6186 12.4688 43.0105 12.7969 43.3204C13.125 43.6303 13.5078 43.7852 13.9453 43.7852H42.0547C42.4922 43.7852 42.875 43.6303 43.2031 43.3204C43.5312 43.0105 43.6953 42.6186 43.6953 42.1446V26.9962L48.5078 22.2383C48.7995 21.9102 48.9453 21.5183 48.9453 21.0626C48.9453 20.6068 48.7995 20.2149 48.5078 19.8868L43.2031 14.6368C43.0573 14.4909 42.8841 14.3725 42.6836 14.2813C42.4831 14.1902 42.2734 14.1446 42.0547 14.1446H34.8906V10.4258H52.7188V54.4493C52.7552 55.543 53.3021 56.0899 54.3594 56.0899C55.4167 56.0899 55.9635 55.543 56 54.4493V1.73053C56 1.29303 55.8359 0.910217 55.5078 0.582092C55.1797 0.253967 54.7969 0.0899048 54.3594 0.0899048ZM24.3906 10.4258H31.6094V14.1446H24.3906V10.4258ZM20.8359 17.4258H24.6094V19.2852C24.5729 20.5248 23.9531 21.1446 22.75 21.1446C21.5469 21.1446 20.9089 20.5248 20.8359 19.2852V17.4258ZM29.8594 26.3399V40.504H15.5859V26.3399C15.5859 26.1212 15.5404 25.9115 15.4492 25.711C15.3581 25.5105 15.2396 25.3373 15.0938 25.1915L10.9922 21.0899L14.6016 17.4258H17.5547V19.2852C17.6276 20.9988 18.1927 22.293 19.25 23.168C20.3073 24.0066 21.4648 24.4258 22.7227 24.4258C23.9805 24.4258 25.138 24.0066 26.1953 23.168C27.2526 22.293 27.8177 20.9988 27.8906 19.2852V17.4258H30.8438L34.4531 21.0899L30.3516 25.1915C30.2057 25.3373 30.0872 25.5105 29.9961 25.711C29.9049 25.9115 29.8594 26.1212 29.8594 26.3399ZM41.3984 17.4258L45.0078 21.0899L40.9062 25.1915C40.7604 25.3373 40.6419 25.5105 40.5508 25.711C40.4596 25.9115 40.4141 26.1212 40.4141 26.3399V40.504H33.1406V26.9962L37.9531 22.2383C38.2812 21.9102 38.4453 21.5183 38.4453 21.0626C38.4453 20.6068 38.2812 20.2149 37.9531 19.8868L35.4922 17.4258H41.3984Z" fill="#2EBB77"/>
</svg>
